<?xml version="1.0" standalone="no"?>
<!DOCTYPE svg PUBLIC "-//W3C//DTD SVG 20010904//EN"
 "http://www.w3.org/TR/2001/REC-SVG-20010904/DTD/svg10.dtd">
<svg version="1.0" xmlns="http://www.w3.org/2000/svg"
 width="170.000000pt" height="170.000000pt" viewBox="0 0 170.000000 170.000000"
 preserveAspectRatio="xMidYMid meet">
<metadata>
Created by potrace 1.14, written by Peter Selinger 2001-2017
</metadata>
<g transform="translate(0.000000,170.000000) scale(0.100000,-0.100000)"
fill="#000000" stroke="none">
<path d="M739 1622 c-23 -3 -27 -9 -32 -48 -5 -52 -12 -61 -47 -66 -20 -2 -29
5 -48 39 -22 40 -24 41 -53 31 -29 -10 -30 -12 -24 -59 6 -48 6 -49 -30 -66
l-37 -18 -27 34 -28 34 -27 -19 c-19 -14 -24 -25 -20 -39 15 -49 10 -79 -18
-94 -26 -15 -29 -14 -56 12 l-28 27 -24 -25 c-23 -25 -23 -26 -7 -60 21 -44
21 -59 2 -75 -11 -9 -22 -9 -51 0 -30 10 -38 10 -45 -1 -21 -32 -21 -58 0 -80
24 -26 26 -43 10 -86 -8 -25 -17 -32 -49 -37 -31 -5 -41 -12 -46 -30 -9 -37
-1 -60 21 -64 32 -6 45 -22 45 -53 0 -26 -26 -52 -71 -71 -3 -2 -4 -20 -1 -40
4 -36 6 -38 38 -38 27 0 37 -5 46 -25 9 -21 7 -30 -17 -65 -25 -36 -26 -42
-15 -71 10 -23 18 -29 32 -25 10 3 27 9 37 12 34 10 45 -29 22 -74 -20 -40
-19 -46 15 -91 2 -2 20 7 40 20 35 21 37 22 50 4 11 -15 11 -22 -1 -46 -19
-36 -19 -46 3 -74 l19 -24 37 31 c33 27 39 29 53 16 12 -13 13 -23 3 -57 -10
-39 -9 -43 12 -61 13 -11 26 -19 29 -20 4 0 19 18 34 40 23 33 30 38 46 29 15
-7 19 -21 19 -58 0 -35 4 -51 16 -55 34 -13 49 -5 65 33 14 33 20 38 42 34 21
-4 26 -12 31 -53 6 -41 10 -49 33 -55 27 -6 43 6 43 35 0 9 6 25 14 36 20 29
76 22 76 -10 0 -48 11 -66 41 -66 25 0 30 5 39 43 17 66 18 67 46 67 21 0 29
-8 46 -49 20 -47 22 -49 50 -39 26 9 28 13 28 69 0 53 2 59 20 59 13 0 30 -15
47 -44 l27 -45 27 20 c25 17 27 23 18 52 -15 52 -11 81 13 96 20 12 24 10 60
-30 l38 -42 23 22 24 22 -21 59 -21 60 21 21 22 21 46 -27 c26 -15 48 -26 50
-24 36 47 36 50 5 96 -22 32 -29 51 -25 69 6 22 10 24 63 22 55 -3 56 -2 64
27 8 27 5 33 -27 60 -31 27 -35 35 -32 70 3 36 6 40 38 49 19 5 36 10 37 10 0
1 4 17 8 38 7 35 6 36 -27 43 -45 10 -58 22 -58 56 0 20 8 34 28 46 15 9 28
18 30 19 2 1 0 18 -3 38 -7 35 -9 36 -50 36 -38 0 -44 3 -56 31 -11 28 -10 36
10 75 l23 43 -20 25 -20 26 -25 -20 c-34 -27 -40 -26 -71 14 -26 34 -26 36 -9
70 16 34 16 37 -2 56 -23 25 -33 25 -62 -2 -19 -18 -26 -20 -48 -10 -32 15
-41 38 -28 73 9 24 7 31 -13 50 l-24 23 -30 -32 c-48 -53 -92 -39 -83 29 5 35
3 40 -21 49 -15 5 -29 10 -30 10 -2 0 -11 -18 -21 -41 -18 -39 -20 -40 -54
-34 -48 9 -51 12 -51 45 0 46 -10 60 -40 60 -26 0 -30 -4 -37 -42 -7 -37 -12
-43 -33 -43 -20 0 -26 8 -37 44 -15 51 -11 47 -44 43z m259 -138 c160 -32 338
-144 427 -268 84 -118 119 -227 118 -366 -1 -424 -460 -732 -907 -608 -238 66
-428 255 -481 479 -48 205 12 406 169 564 179 180 419 251 674 199z"/>
<path d="M732 1425 c0 -16 2 -22 5 -12 2 9 2 23 0 30 -3 6 -5 -1 -5 -18z"/>
<path d="M771 1434 c0 -11 3 -14 6 -6 3 7 2 16 -1 19 -3 4 -6 -2 -5 -13z"/>
<path d="M830 1410 c0 -22 2 -40 4 -40 2 0 6 18 8 40 2 22 0 40 -4 40 -5 0 -8
-18 -8 -40z"/>
<path d="M879 1428 c0 -13 -2 -31 -4 -40 -2 -14 3 -18 23 -17 26 0 26 1 5 9
-13 5 -23 12 -23 15 0 3 10 10 23 15 17 7 18 9 5 9 -10 1 -18 5 -18 10 0 5 8
12 18 14 13 4 11 5 -5 6 -17 1 -23 -5 -24 -21z"/>
<path d="M670 1430 c-10 -6 -11 -10 -2 -10 6 0 12 -6 12 -14 0 -8 4 -17 9 -20
5 -4 7 3 4 15 -4 12 0 25 8 30 12 7 12 9 -1 9 -8 0 -22 -5 -30 -10z"/>
<path d="M984 1415 c-11 -27 5 -65 26 -65 13 0 22 9 26 25 8 34 -1 55 -26 55
-11 0 -23 -7 -26 -15z m44 -22 c-2 -17 -9 -28 -18 -28 -9 0 -16 11 -18 28 -3
22 1 27 18 27 17 0 21 -5 18 -27z"/>
<path d="M632 1405 c0 -11 4 -31 8 -45 6 -20 8 -21 8 -5 0 11 -4 31 -8 45 -6
20 -8 21 -8 5z"/>
<path d="M575 1400 c-13 -6 -15 -9 -5 -9 8 0 22 4 30 9 18 12 2 12 -25 0z"/>
<path d="M773 1394 c-3 -8 -12 -13 -19 -10 -8 3 -14 1 -14 -4 0 -13 14 -20 26
-12 11 8 26 42 18 42 -2 0 -7 -7 -11 -16z"/>
<path d="M1066 1398 c-12 -40 -14 -60 -5 -51 6 6 12 19 13 29 2 11 11 18 20
18 8 -1 13 2 10 7 -8 13 -34 11 -38 -3z"/>
<path d="M504 1365 c-8 -19 3 -35 24 -35 16 1 16 2 0 14 -22 16 -23 30 -3 22
8 -3 15 -1 15 4 0 16 -30 12 -36 -5z"/>
<path d="M590 1355 c0 -14 4 -25 9 -25 4 0 6 11 3 25 -2 14 -6 25 -8 25 -2 0
-4 -11 -4 -25z"/>
<path d="M1180 1360 c0 -6 7 -10 15 -10 8 0 15 2 15 4 0 2 -7 6 -15 10 -8 3
-15 1 -15 -4z"/>
<path d="M692 1334 c-329 -88 -491 -423 -341 -704 66 -124 218 -234 366 -265
78 -17 193 -20 193 -5 0 14 -32 28 -57 24 -17 -3 -23 3 -28 27 -7 30 15 79 35
79 17 0 50 -39 50 -59 0 -18 3 -18 40 6 22 15 39 34 39 42 -1 13 -2 12 -6 -1
-2 -10 -11 -18 -20 -18 -10 0 -14 6 -10 20 3 11 1 20 -4 20 -5 0 -9 -7 -9 -16
0 -9 -6 -14 -12 -11 -7 2 -12 11 -10 21 2 9 -2 16 -8 16 -6 0 -8 -5 -4 -11 7
-12 -20 -8 -62 8 -11 4 -15 3 -10 -5 3 -6 1 -14 -5 -18 -6 -3 -15 0 -20 7 -7
11 -9 10 -9 -3 0 -10 -7 -18 -15 -18 -8 0 -15 8 -15 18 0 14 -2 15 -10 2 -14
-21 -12 -30 4 -30 17 0 56 -46 56 -66 0 -22 -15 -16 -30 11 -8 15 -22 25 -35
25 -36 0 -59 23 -53 54 4 19 2 26 -7 22 -17 -6 -35 13 -36 39 -1 16 -2 16 -6
3 -5 -18 37 -98 62 -118 8 -7 15 -21 15 -32 0 -17 -5 -19 -32 -13 -70 14 -175
73 -241 135 -50 46 -77 82 -104 138 -35 69 -38 83 -41 176 -3 82 0 112 17 158
20 58 79 158 93 158 10 0 10 18 -7 -264 -8 -132 -13 -248 -9 -258 4 -15 17
-18 77 -19 40 -1 99 -4 132 -8 40 -4 71 -2 92 6 18 7 51 14 73 15 48 2 50 9 8
29 l-31 15 2 77 c1 49 -2 77 -8 77 -6 0 -11 5 -11 10 0 6 6 10 13 10 9 0 11
35 9 151 -3 141 -2 150 15 147 16 -3 18 -16 18 -145 l0 -142 30 6 c17 3 38 15
47 27 15 18 19 19 27 6 18 -27 23 -1 22 113 -2 111 -1 114 23 130 61 41 182
41 256 1 22 -12 10 -13 -102 -14 l-128 0 0 -45 0 -45 41 0 c22 0 38 -4 35 -8
-3 -5 19 -7 49 -4 30 2 55 0 55 -5 0 -17 -24 -33 -51 -33 -55 0 -54 2 -51
-162 4 -167 6 -162 -65 -173 -23 -3 -43 -9 -43 -13 0 -26 297 -46 326 -21 6 5
16 93 24 215 7 113 16 220 19 237 6 30 7 30 35 -33 38 -84 46 -202 21 -296
-35 -128 -137 -245 -270 -309 -40 -19 -78 -35 -84 -35 -7 0 8 27 33 59 25 33
46 66 46 75 0 23 -16 28 -31 8 -13 -15 -12 -16 4 -3 21 17 22 9 2 -29 -16 -32
-30 -38 -38 -17 -3 6 -6 -3 -6 -21 -1 -33 -4 -36 -52 -46 -14 -3 -31 -17 -37
-31 -14 -30 -3 -32 73 -11 174 46 327 191 370 350 26 96 18 232 -18 310 -69
150 -200 258 -364 300 -75 20 -229 20 -301 0z m329 -23 c36 -11 92 -38 125
-60 128 -86 136 -105 29 -72 -112 35 -186 26 -274 -34 -49 -32 -52 -33 -61
-14 -22 40 -68 53 -200 56 -69 1 -138 2 -155 2 l-30 1 30 25 c47 39 164 94
235 110 84 19 214 13 301 -14z m-276 -171 c-3 -5 -24 -10 -46 -10 l-39 0 0
-97 c0 -53 -3 -93 -7 -89 -4 4 -22 46 -39 94 l-31 87 -52 5 -51 6 0 -228 0
-227 38 -3 c36 -3 36 -4 -21 -17 -31 -8 -60 -12 -63 -8 -6 6 10 340 22 445 l5
52 145 0 c94 0 143 -4 139 -10z m531 -34 c9 -23 -26 -459 -38 -473 -7 -9 -33
-12 -77 -11 l-66 2 70 5 70 6 -45 9 c-25 5 -39 11 -32 13 9 4 12 50 12 189 l0
184 40 0 40 0 0 45 c0 43 15 61 26 31z m-653 -336 c14 -46 25 -86 23 -87 -1
-2 -17 -6 -34 -9 l-32 -6 0 103 c0 58 4 99 9 94 4 -6 20 -48 34 -95z m7 -144
c8 -2 -25 -4 -75 -5 -49 0 -84 3 -77 7 11 7 115 6 152 -2z m148 -225 c3 -8 -1
-12 -9 -9 -7 2 -15 10 -17 17 -3 8 1 12 9 9 7 -2 15 -10 17 -17z m212 0 c0 -5
-7 -12 -16 -15 -24 -9 -28 -7 -14 9 14 17 30 20 30 6z"/>
<path d="M830 1267 c-12 -20 -11 -21 2 -9 9 7 24 9 34 6 20 -7 19 -6 -6 13
-13 10 -18 8 -30 -10z"/>
<path d="M859 1223 c-13 -16 -12 -17 4 -4 9 7 17 15 17 17 0 8 -8 3 -21 -13z"/>
<path d="M550 1331 c0 -6 -10 -16 -22 -21 l-23 -9 23 0 c22 -1 41 23 28 36 -3
4 -6 1 -6 -6z"/>
<path d="M1166 1325 c-3 -9 -6 -22 -5 -28 0 -7 5 -1 10 12 5 13 8 26 5 28 -2
2 -6 -3 -10 -12z"/>
<path d="M1215 1299 c-9 -17 -15 -32 -13 -33 2 -1 12 -8 23 -16 20 -14 20 -14
2 7 -20 23 -10 37 20 27 16 -6 16 -5 -2 9 -11 8 -17 19 -13 23 4 4 14 1 23 -6
8 -7 15 -8 15 -2 0 8 -22 22 -36 22 -2 0 -11 -14 -19 -31z"/>
<path d="M428 1313 c6 -2 9 -10 6 -15 -4 -7 -2 -8 5 -4 13 9 5 26 -12 25 -9 0
-8 -2 1 -6z"/>
<path d="M407 1265 c9 -19 18 -33 21 -31 4 5 -26 66 -33 66 -3 0 3 -16 12 -35z"/>
<path d="M471 1283 c6 -7 15 -13 20 -13 5 0 6 6 3 13 -3 8 -11 14 -19 14 -11
0 -12 -4 -4 -14z"/>
<path d="M440 1271 c0 -6 4 -13 10 -16 6 -3 7 1 4 9 -7 18 -14 21 -14 7z"/>
<path d="M1286 1265 c-9 -9 -16 -24 -15 -33 0 -13 2 -12 9 4 12 31 27 37 39
17 5 -10 12 -15 15 -12 4 3 -2 13 -13 23 -17 16 -20 16 -35 1z"/>
<path d="M325 1207 c1 -12 4 -23 5 -24 3 -3 6 -16 10 -35 1 -7 5 -2 9 12 4 15
14 24 24 24 28 -3 19 11 -17 28 -32 16 -33 16 -31 -5z m26 -10 c-1 -12 -15 -9
-19 4 -3 6 1 10 8 8 6 -3 11 -8 11 -12z"/>
<path d="M1337 1194 c-11 -14 -17 -28 -14 -30 3 -3 15 9 27 25 12 17 18 31 13
31 -4 0 -16 -12 -26 -26z"/>
<path d="M1288 1203 c7 -3 16 -2 19 1 4 3 -2 6 -13 5 -11 0 -14 -3 -6 -6z"/>
<path d="M1370 1158 l-23 -33 28 27 c16 15 26 30 23 33 -3 4 -16 -9 -28 -27z"/>
<path d="M260 1144 c-11 -13 -9 -19 12 -41 29 -28 48 -24 48 11 0 41 -36 60
-60 30z m46 -9 c4 -8 3 -22 0 -31 -6 -15 -8 -15 -26 1 -20 18 -17 45 6 45 8 0
17 -7 20 -15z"/>
<path d="M1375 1109 c-11 -17 1 -21 15 -4 8 9 8 15 2 15 -6 0 -14 -5 -17 -11z"/>
<path d="M1409 1110 c-1 -5 -2 -16 -3 -22 -1 -7 -5 -16 -10 -19 -4 -4 -4 -9 1
-12 6 -4 21 5 33 18 13 14 18 25 12 25 -7 0 -12 -4 -12 -10 0 -5 -5 -10 -11
-10 -6 0 -8 9 -4 20 3 11 4 20 1 20 -3 0 -7 -4 -7 -10z"/>
<path d="M230 1081 c0 -5 7 -12 16 -15 14 -5 15 -4 4 9 -14 17 -20 19 -20 6z"/>
<path d="M210 1038 c0 -11 49 -42 56 -35 3 3 -4 8 -16 12 -15 5 -18 10 -11 19
7 8 4 12 -10 12 -10 0 -19 -4 -19 -8z"/>
<path d="M268 1043 c7 -3 16 -2 19 1 4 3 -2 6 -13 5 -11 0 -14 -3 -6 -6z"/>
<path d="M1434 1042 c-15 -10 -25 -42 -14 -42 6 0 10 7 10 15 0 9 9 15 21 15
15 0 20 -5 17 -22 -2 -17 -9 -23 -26 -22 -14 0 -19 -3 -13 -9 29 -29 68 26 41
59 -14 16 -20 17 -36 6z"/>
<path d="M196 963 c-13 -14 -5 -25 9 -13 19 16 32 5 16 -13 -9 -11 -7 -17 5
-28 15 -12 16 -11 10 8 -4 13 -1 26 8 35 13 13 11 15 -14 16 -15 0 -31 -2 -34
-5z"/>
<path d="M1450 930 c-24 -15 -7 -18 25 -4 23 10 25 13 10 13 -11 1 -27 -3 -35
-9z"/>
<path d="M1447 844 c-15 -16 -6 -23 13 -12 17 11 22 10 31 -2 9 -13 10 -13 6
0 -4 16 -38 25 -50 14z"/>
<path d="M198 833 c12 -2 30 -2 40 0 9 3 -1 5 -23 4 -22 0 -30 -2 -17 -4z"/>
<path d="M800 830 c-14 -4 -19 -8 -12 -9 8 -1 12 -22 12 -71 0 -40 4 -70 10
-70 6 0 10 15 10 34 0 18 7 53 15 76 8 23 15 44 15 46 0 6 -22 3 -50 -6z"/>
<path d="M1440 803 c0 -15 31 -32 48 -26 21 8 13 21 -9 16 -12 -4 -25 0 -30 8
-6 9 -9 10 -9 2z"/>
<path d="M212 777 c-24 -25 -28 -37 -12 -37 6 0 10 7 10 15 0 16 15 21 23 8 2
-5 3 -3 1 3 -1 6 3 17 9 23 7 7 7 11 1 11 -6 0 -20 -10 -32 -23z"/>
<path d="M1418 725 c-14 -32 3 -58 25 -36 10 10 8 11 -7 5 -14 -5 -17 -3 -14
12 2 11 13 20 26 22 18 3 22 -1 22 -21 0 -14 -5 -28 -10 -30 -6 -3 -5 -4 2 -3
18 3 22 44 8 62 -19 21 -39 17 -52 -11z"/>
<path d="M238 733 c7 -3 16 -2 19 1 4 3 -2 6 -13 5 -11 0 -14 -3 -6 -6z"/>
<path d="M260 694 c0 -8 -4 -12 -10 -9 -5 3 -18 1 -27 -5 -15 -9 -14 -10 6 -4
20 5 23 3 17 -12 -6 -18 -5 -18 9 0 14 19 20 46 10 46 -3 0 -5 -7 -5 -16z"/>
<path d="M879 638 c2 -28 6 -36 12 -27 13 21 11 56 -4 62 -9 3 -11 -6 -8 -35z"/>
<path d="M253 646 c-13 -6 -23 -14 -23 -18 0 -14 17 -9 41 12 26 21 17 24 -18
6z"/>
<path d="M1416 614 c-3 -9 -2 -22 2 -31 6 -10 9 -5 9 16 0 35 -2 38 -11 15z"/>
<path d="M300 585 c0 -8 -7 -15 -16 -15 -13 0 -14 -3 -4 -15 6 -8 9 -18 6 -23
-3 -6 5 -9 19 -8 14 0 23 6 21 12 -2 6 -1 15 3 20 5 5 0 17 -10 27 -16 14 -19
14 -19 2z"/>
<path d="M1328 531 c-19 -22 -8 -55 19 -58 17 -2 21 1 16 13 -3 9 -2 19 4 23
5 3 2 13 -8 22 -15 15 -18 15 -31 0z"/>
<path d="M700 536 c0 -2 9 -6 20 -9 11 -3 18 -1 14 4 -5 9 -34 13 -34 5z"/>
<path d="M871 524 c0 -11 3 -14 6 -6 3 7 2 16 -1 19 -3 4 -6 -2 -5 -13z"/>
<path d="M930 530 c8 -5 24 -10 34 -10 26 0 18 6 -19 14 -22 5 -26 4 -15 -4z"/>
<path d="M763 523 c9 -2 23 -2 30 0 6 3 -1 5 -18 5 -16 0 -22 -2 -12 -5z"/>
<path d="M726 491 c-4 -7 -5 -15 -2 -18 9 -9 19 4 14 18 -4 11 -6 11 -12 0z"/>
<path d="M377 458 c-18 -31 -18 -33 -1 -45 26 -19 38 -16 51 14 11 22 10 29
-4 45 -22 24 -25 23 -46 -14z m43 -4 c0 -8 -4 -12 -10 -9 -5 3 -10 10 -10 16
0 5 5 9 10 9 6 0 10 -7 10 -16z m-12 -33 c3 -8 -1 -12 -9 -9 -7 2 -15 10 -17
17 -3 8 1 12 9 9 7 -2 15 -10 17 -17z"/>
<path d="M1228 454 c-15 -15 -14 -19 4 -50 24 -41 31 -43 22 -8 -6 24 -5 25
15 15 14 -8 21 -8 21 -1 0 5 -4 10 -9 10 -5 0 -11 10 -13 22 -4 28 -19 32 -40
12z m32 -13 c0 -12 -20 -25 -27 -18 -7 7 6 27 18 27 5 0 9 -4 9 -9z"/>
<path d="M850 437 c0 -8 7 -14 15 -14 8 0 15 6 15 14 0 7 -7 13 -15 13 -8 0
-15 -6 -15 -13z"/>
<path d="M454 404 c-8 -20 -13 -39 -10 -42 3 -2 8 2 12 11 9 24 36 9 29 -17
-3 -11 3 -5 14 14 18 33 20 60 2 31 -12 -19 -33 -3 -26 20 11 33 -5 20 -21
-17z"/>
<path d="M1161 363 c1 -27 3 -40 6 -30 4 17 15 21 43 17 9 -1 4 10 -14 29 -17
17 -31 31 -33 31 -2 0 -2 -21 -2 -47z"/>
<path d="M534 356 c-7 -38 0 -56 21 -56 18 0 35 32 34 62 0 15 -3 18 -6 8 -3
-8 -10 -26 -15 -39 -14 -39 -33 -11 -20 28 6 17 7 31 2 31 -5 0 -12 -15 -16
-34z"/>
<path d="M1110 363 c-1 -25 -2 -26 -14 -10 -19 24 -26 21 -26 -10 l-1 -28 -14
25 c-21 36 -18 5 2 -33 l18 -32 3 35 4 34 19 -24 19 -25 0 48 c0 26 -2 47 -5
47 -3 0 -5 -12 -5 -27z"/>
<path d="M626 348 c-17 -53 -16 -67 5 -73 25 -8 34 0 43 37 5 21 2 30 -13 38
-25 13 -31 13 -35 -2z m34 -18 c0 -5 -4 -10 -10 -10 -5 0 -10 5 -10 10 0 6 5
10 10 10 6 0 10 -4 10 -10z m-9 -33 c-1 -12 -15 -9 -19 4 -3 6 1 10 8 8 6 -3
11 -8 11 -12z"/>
<path d="M977 343 c-16 -15 -6 -43 14 -43 12 0 19 -5 16 -12 -2 -7 -13 -11
-23 -10 -15 3 -16 1 -7 -8 6 -7 19 -10 27 -7 24 9 19 44 -6 52 -20 6 -20 8 -5
12 9 2 15 9 12 14 -7 11 -19 12 -28 2z"/>
<path d="M717 305 c-21 -45 -21 -44 4 -38 12 4 25 0 31 -8 6 -10 7 -1 3 26 -9
56 -19 61 -38 20z m23 -11 c0 -8 -5 -12 -10 -9 -6 4 -8 11 -5 16 9 14 15 11
15 -7z"/>
<path d="M799 310 c0 -14 -2 -33 -4 -42 -2 -10 0 -18 5 -18 12 0 21 63 10 74
-7 7 -10 2 -11 -14z"/>
<path d="M840 304 c0 -14 -4 -23 -10 -19 -15 9 -12 -8 5 -31 13 -18 14 -15 15
29 0 26 -2 47 -5 47 -3 0 -5 -12 -5 -26z"/>
<path d="M880 313 c0 -44 12 -63 39 -62 23 2 24 2 4 6 -27 5 -29 18 -5 32 16
10 16 10 0 11 -10 0 -18 4 -18 9 0 5 8 12 18 14 10 3 6 5 -10 6 -21 1 -28 -4
-28 -16z"/>
</g>
</svg>
